<svg width="143" height="44" viewBox="0 0 143 44" fill="none" xmlns="http://www.w3.org/2000/svg">
<path d="M86.4416 22.0778L70.6607 43.7725C70.5644 43.9048 70.3669 43.9048 70.2706 43.7725L54.4897 22.0778C54.4286 21.9932 54.4286 21.8785 54.4897 21.794L70.2706 0.0992061C70.3669 -0.0330687 70.5644 -0.0330687 70.6607 0.0992061L86.4416 21.794C86.5027 21.8785 86.5027 21.9932 86.4416 22.0778Z" fill="white"/>
<path d="M67.4645 17.1158C66.3284 17.1158 65.3899 17.4373 64.6532 18.0769C63.9165 18.7198 63.4812 19.5537 63.3447 20.5767H65.2376C65.338 20.0149 65.5783 19.5738 65.955 19.259C66.3318 18.9442 66.809 18.7885 67.3799 18.7885C68.0128 18.7885 68.516 18.9894 68.8927 19.3954C69.2694 19.8015 69.4704 20.3364 69.493 20.9986H66.8567C65.6068 20.9986 64.6716 21.2808 64.0454 21.8425C63.4225 22.4076 63.1069 23.115 63.1069 23.9723C63.1069 24.5014 63.2434 24.9753 63.513 25.3972C63.7859 25.8191 64.1618 26.1507 64.6457 26.3934C65.1296 26.6371 65.6679 26.7568 66.2656 26.7568C69.6185 26.7568 70.3879 24.812 70.804 23.8158L71.9141 26.5877H73.8681C73.7802 26.3524 73.6923 26.118 73.6044 25.8836C73.39 25.3126 73.1749 24.7425 72.9589 24.1724C72.691 23.4658 72.4231 22.7601 72.1519 22.056C71.9049 21.4147 71.6646 20.7709 71.4026 20.1363C71.1029 19.4113 70.1543 17.1166 67.4636 17.1166L67.4645 17.1158ZM69.4938 22.5692C69.4938 23.1083 69.3473 23.5688 69.0618 23.9455C68.7763 24.3222 68.4155 24.6044 67.981 24.7894C67.549 24.9744 67.1112 25.0682 66.6725 25.0682C66.176 25.0682 65.7893 24.9543 65.5071 24.7308C65.225 24.5039 65.0852 24.2017 65.0852 23.8183C65.0852 23.4348 65.2284 23.1435 65.5172 22.9057C65.8027 22.6688 66.2506 22.5516 66.8575 22.5516H69.4938V22.5675V22.5692Z" fill="#151515"/>
<path d="M77.8237 17.1928L77.2603 18.6729L74.2473 26.5885H72.3669L75.1548 19.264C75.2636 18.9785 75.0526 18.6729 74.7479 18.6729H72.9647V17.1928H77.8237Z" fill="#151515"/>
<path d="M142.355 11.3308C142.044 11.0194 141.686 10.8662 141.225 10.8662C140.765 10.8662 140.38 11.0194 140.068 11.3308C139.757 11.6381 139.604 12.0224 139.604 12.4828C139.604 12.9433 139.757 13.3284 140.068 13.6398C140.38 13.9512 140.781 14.1044 141.225 14.1044C141.67 14.1044 142.044 13.9512 142.355 13.6398C142.667 13.3284 142.82 12.9399 142.82 12.4828C142.82 12.0257 142.667 11.6423 142.355 11.3308Z" fill="white"/>
<path d="M108.804 11.3309C108.496 11.0194 108.116 10.862 107.673 10.862C107.231 10.862 106.828 11.0194 106.521 11.3309C106.209 11.6381 106.052 12.0266 106.052 12.4837C106.052 12.9408 106.209 13.3284 106.521 13.6398C106.832 13.9512 107.216 14.1044 107.673 14.1044C108.13 14.1044 108.496 13.947 108.804 13.6398C109.115 13.3284 109.272 12.9441 109.272 12.4837C109.272 12.0232 109.115 11.6381 108.804 11.3309Z" fill="white"/>
<path d="M106.385 18.0065C106.368 17.5729 106.334 17.2229 106.282 16.9584C106.206 16.5616 106.064 16.194 105.86 15.8491V15.721H109.453V15.8491C109.249 16.1949 109.107 16.5616 109.03 16.9584C108.953 17.3552 108.916 17.9396 108.916 18.7115V17.9639L108.915 25.3738C108.924 25.9255 108.958 26.3641 109.014 26.689C109.082 27.0858 109.227 27.4659 109.449 27.8242V27.9565H108.912V27.9523H105.843V27.8242C106.048 27.4784 106.189 27.1117 106.266 26.7149C106.343 26.3181 106.382 25.7337 106.382 24.9619" fill="white"/>
<path d="M123.523 27.8208V27.9531H119.965V27.8208C120.187 27.4625 120.332 27.0824 120.399 26.6864C120.434 26.488 120.46 26.2469 120.477 25.964V21.1192C120.477 20.1506 120.264 19.3787 119.838 18.8111C119.782 18.7391 119.722 18.6662 119.658 18.5976C119.108 18.0132 118.362 17.7227 117.419 17.7227C117.316 17.7227 117.218 17.7269 117.12 17.7353C116.313 17.7864 115.661 18.0769 115.162 18.5968C114.612 19.1811 114.33 20.0216 114.33 21.1183V25.4265C114.341 25.9514 114.373 26.3725 114.428 26.6864C114.496 27.0833 114.641 27.4625 114.863 27.8208V27.9531H111.266V27.8208C111.488 27.4625 111.632 27.0824 111.701 26.6864C111.769 26.2938 111.803 25.7346 111.803 25.0138V25.059V18.6177V18.6612C111.803 17.9396 111.769 17.3812 111.7 16.9894C111.632 16.5925 111.487 16.2125 111.265 15.8541V15.7219H114.329V17.1208C114.614 16.775 114.956 16.4804 115.349 16.2418C115.528 16.1304 115.715 16.0325 115.916 15.9471C116.548 15.67 117.222 15.5285 117.931 15.5243H117.969C118.933 15.5243 119.795 15.721 120.558 16.1212C121.318 16.5222 121.916 17.1158 122.342 17.896C122.773 18.6813 122.986 19.629 122.986 20.7374V25.146C122.99 25.8032 123.024 26.3172 123.088 26.6856C123.157 27.0824 123.302 27.4617 123.523 27.82V27.8208Z" fill="white"/>
<path d="M137.163 12.7641C137.24 12.3673 137.381 12.0006 137.585 11.6548V11.5267H133.967V11.6548C134.172 12.0006 134.313 12.3673 134.39 12.7641C134.447 13.0554 134.482 13.4481 134.497 13.942V17.4272C134.04 16.8512 133.421 16.3899 132.645 16.04C131.868 15.6951 131.079 15.5193 130.282 15.5193C129.202 15.5193 128.221 15.7838 127.341 16.3087C126.462 16.8378 125.768 17.572 125.255 18.5189V18.5105C124.748 19.4574 124.492 20.5499 124.492 21.7747C124.492 22.9995 124.744 24.1004 125.255 25.0682C125.768 26.041 126.462 26.7919 127.341 27.3336C128.221 27.8752 129.193 28.144 130.26 28.144C131.207 28.144 132.043 27.9523 132.776 27.568C133.511 27.1846 134.082 26.6973 134.496 26.1046V27.9481H137.035V27.9523H137.577V27.8242C137.372 27.4784 137.231 27.1117 137.154 26.7149C137.097 26.4219 137.062 26.0259 137.047 25.527V14.5172C137.047 13.7453 137.085 13.1609 137.162 12.7641H137.163ZM133.976 24.041C133.626 24.668 133.174 25.146 132.612 25.47C132.048 25.794 131.425 25.9564 130.79 25.9564C130.154 25.9564 129.548 25.7898 128.981 25.4566C128.409 25.1234 127.948 24.6379 127.603 24.0016C127.258 23.3662 127.082 22.6236 127.082 21.7831C127.082 20.9425 127.257 20.2134 127.603 19.5989C127.953 18.9844 128.406 18.5189 128.968 18.1991C129.532 17.8793 130.137 17.7211 130.79 17.7211C131.443 17.7211 132.049 17.8826 132.612 18.2075C133.175 18.5315 133.631 19.0053 133.976 19.6282V19.6315C134.322 20.2552 134.497 20.9844 134.497 21.8291C134.497 22.6738 134.322 23.4122 133.976 24.0393V24.041Z" fill="white"/>
<path d="M143 27.825V27.9531H142.458V27.9489H139.949V27.9531H139.408V27.825C139.612 27.4793 139.753 27.1126 139.83 26.7158C139.886 26.4269 139.922 26.0376 139.937 25.5487V18.0065C139.92 17.5729 139.886 17.2229 139.834 16.9584C139.758 16.5616 139.616 16.194 139.412 15.8491V15.721H142.992V15.8491C142.787 16.1949 142.646 16.5616 142.569 16.9584C142.517 17.2263 142.483 17.5796 142.466 18.0183V25.3763C142.478 25.9472 142.514 26.3926 142.577 26.7149C142.654 27.1117 142.795 27.4793 143 27.8242V27.825Z" fill="white"/>
<path d="M104.921 15.7168V15.8449C104.609 16.225 104.357 16.6218 104.156 17.0312C103.96 17.4456 103.717 18.0216 103.423 18.7642L102.156 21.9597L102.555 20.9065L99.8725 27.9456H96.852L94.5815 21.9597L94.5698 21.9287L93.3149 18.7642C93.0202 18.0216 92.7774 17.4456 92.5806 17.0312C92.3806 16.6218 92.1286 16.225 91.8171 15.8449V15.7168H95.6908V15.8449C95.5033 16.2074 95.4304 16.6177 95.4731 17.0739C95.4857 17.1978 95.5033 17.3301 95.5326 17.4707L97.5075 23.1619L98.3823 25.6835L101.227 17.4984C101.257 17.3577 101.283 17.1978 101.296 17.0739C101.338 16.6177 101.266 16.2083 101.078 15.8449V15.7168H104.917H104.921Z" fill="white"/>
<path d="M21.3281 15.5243V18.1447H20.6834C19.6931 18.1447 18.9429 18.3967 18.4306 18.8998C17.9191 19.4038 17.6671 20.2778 17.6671 21.5194V24.9627C17.6671 25.7354 17.7056 26.3198 17.7818 26.7157C17.8588 27.1126 17.9994 27.4801 18.2045 27.825V27.9531H15.1371V17.742C15.1179 17.428 15.0877 17.1677 15.0475 16.9584C14.9705 16.5616 14.8299 16.194 14.6248 15.8491V15.721H17.6671V17.4959C18.0388 16.873 18.5285 16.3908 19.143 16.0408V16.045C19.7575 15.6993 20.4875 15.5243 21.3272 15.5243H21.3281Z" fill="white"/>
<path d="M22.6935 18.5072C23.2058 17.5511 23.9091 16.8177 24.8141 16.297C25.7182 15.7805 26.7513 15.5201 27.92 15.5201C29.4001 15.5201 30.6249 15.8701 31.5936 16.5741C32.5622 17.2782 33.2152 18.2803 33.5559 19.5821H30.825C30.6032 18.976 30.249 18.503 29.7585 18.1614C29.2721 17.8199 28.6576 17.6491 27.915 17.6491C26.8786 17.6491 26.0548 18.0158 25.4403 18.75C24.8258 19.4842 24.5185 20.508 24.5185 21.8216C24.5185 23.1351 24.8258 24.1682 25.4403 24.9066C26.0548 25.645 26.8777 26.0159 27.915 26.0159C29.3784 26.0159 30.347 25.3712 30.8208 24.0828H33.5517C33.1976 25.3244 32.532 26.3139 31.5551 27.0439C30.5781 27.7781 29.3667 28.1406 27.9158 28.1406C26.7471 28.1406 25.7098 27.8761 24.8099 27.3512C23.9057 26.8263 23.2016 26.0887 22.6893 25.1326C22.1769 24.1766 21.9258 23.0715 21.9258 21.8132C21.9258 20.5549 22.182 19.4498 22.6893 18.4938L22.6935 18.5063V18.5072Z" fill="white"/>
<path d="M5.72549 15.495C4.23196 15.495 2.99962 15.9178 2.031 16.7575C1.06238 17.6022 0.490589 18.6989 0.311432 20.0426H2.7987C2.93098 19.3042 3.24659 18.724 3.74137 18.3104C4.23614 17.8969 4.86319 17.6918 5.61415 17.6918C6.4463 17.6918 7.10768 17.9563 7.60245 18.4896C8.09723 19.0229 8.36178 19.727 8.39192 20.5976H4.92766C3.2851 20.5976 2.05612 20.9685 1.23317 21.7069C0.414405 22.4495 0 23.3796 0 24.5056C0 25.2013 0.179157 25.8242 0.533285 26.3784C0.891599 26.9326 1.38637 27.3679 2.02263 27.6886C2.65805 28.0084 3.36631 28.1666 4.15159 28.1666C8.55852 28.1666 9.56983 25.6107 10.1165 24.3013L11.5757 27.9447H14.1442C14.0287 27.6358 13.9131 27.3277 13.7968 27.0188C13.5146 26.2687 13.2325 25.5186 12.9487 24.7693C12.5971 23.8409 12.2438 22.9133 11.888 21.9873C11.564 21.1443 11.2475 20.2987 10.9035 19.4641C10.51 18.5105 9.26342 15.495 5.72717 15.495H5.72549ZM8.39192 22.663C8.39192 23.3712 8.2002 23.9773 7.82431 24.4721C7.44925 24.9669 6.9754 25.3386 6.40361 25.5814C5.836 25.8242 5.26002 25.9481 4.68404 25.9481C4.03103 25.9481 3.5237 25.799 3.15199 25.5043C2.78112 25.2055 2.59694 24.8087 2.59694 24.3055C2.59694 23.8024 2.78447 23.4181 3.16455 23.1067C3.53961 22.7952 4.12898 22.642 4.92682 22.642H8.39108V22.663H8.39192Z" fill="white"/>
<path d="M40.6972 15.495C39.2036 15.495 37.9713 15.9178 37.0027 16.7575C36.0341 17.6022 35.4623 18.6989 35.2831 20.0426H37.7704C37.9027 19.3042 38.2183 18.724 38.713 18.3104C39.2078 17.8969 39.8349 17.6918 40.5858 17.6918C41.418 17.6918 42.0794 17.9563 42.5741 18.4896C43.0689 19.0229 43.3335 19.727 43.3636 20.5976H39.8993C38.2568 20.5976 37.0278 20.9685 36.2048 21.7069C35.3861 22.4495 34.9717 23.3796 34.9717 24.5056C34.9717 25.2013 35.1508 25.8242 35.505 26.3784C35.8633 26.9326 36.3581 27.3679 36.9943 27.6886C37.6297 28.0084 38.338 28.1666 39.1233 28.1666C43.5302 28.1666 44.5415 25.6107 45.0882 24.3013L46.5474 27.9447H49.1159C49.0003 27.6358 48.8848 27.3277 48.7684 27.0188C48.4863 26.2687 48.2042 25.5186 47.9204 24.7693C47.5688 23.8409 47.2155 22.9133 46.8597 21.9873C46.5357 21.1443 46.2192 20.2987 45.8751 19.4641C45.4817 18.5105 44.2351 15.495 40.6988 15.495H40.6972ZM43.3644 22.663C43.3644 23.3712 43.1727 23.9773 42.7968 24.4721C42.4218 24.9669 41.9479 25.3386 41.3761 25.5814C40.8085 25.8242 40.2325 25.9481 39.6565 25.9481C39.0035 25.9481 38.4962 25.799 38.1245 25.5043C37.7536 25.2055 37.5695 24.8087 37.5695 24.3055C37.5695 23.8024 37.757 23.4181 38.1371 23.1067C38.5121 22.7952 39.1015 22.642 39.8993 22.642H43.3636V22.663H43.3644Z" fill="white"/>
</svg>
